<svg xmlns="http://www.w3.org/2000/svg" xmlns:xlink="http://www.w3.org/1999/xlink" width="101" height="101" viewBox="0 0 101 101">
  <defs>
    <clipPath id="clip-path">
      <rect id="Rectangle_25" data-name="Rectangle 25" width="58.556" height="59.506" transform="translate(0)" fill="#406ca5"/>
    </clipPath>
  </defs>
  <g id="Group_160" data-name="Group 160" transform="translate(51.714 31)">
    <rect id="Rectangle_26" data-name="Rectangle 26" width="101" height="101" rx="17" transform="translate(-51.714 -31)" fill="#c0e5f5"/>
    <g id="Group_159" data-name="Group 159" transform="translate(-30.883 -10.169)" clip-path="url(#clip-path)">
      <path id="Path_15" data-name="Path 15" d="M159.764,167.742q0,8.744,0,17.488c0,1.015-.186,1.2-1.2,1.2H147.63c-.977,0-1.176-.2-1.176-1.172q0-17.548,0-35.1c0-.967.21-1.175,1.177-1.175q5.5,0,10.991,0c.914,0,1.143.23,1.144,1.146q0,8.8,0,17.61" transform="translate(-128.661 -130.887)" fill="#406ca5"/>
      <path id="Path_16" data-name="Path 16" d="M302.743,298.171a12.4,12.4,0,1,1-12.392-12.4,12.389,12.389,0,0,1,12.392,12.4" transform="translate(-244.187 -251.055)" fill="#406ca5"/>
      <path id="Path_17" data-name="Path 17" d="M294.941,89.72q0-2.117,0-4.233,0-12.663,0-25.325c0-1.092.174-1.266,1.264-1.266q5.466,0,10.932,0c.886,0,1.119.228,1.12,1.111q0,12.3,0,24.6c0,.795-.169.955-.86.859a13.561,13.561,0,0,0-11.737,3.818c-.185.176-.371.349-.557.524l-.163-.085" transform="translate(-259.111 -51.74)" fill="#406ca5"/>
      <path id="Path_18" data-name="Path 18" d="M0,280.336q0-5.159,0-10.319c0-.955.215-1.167,1.179-1.167q5.493,0,10.986,0c.921,0,1.156.228,1.156,1.139q0,10.288,0,20.576c0,.931-.217,1.164-1.132,1.166q-5.584.009-11.168,0c-.792,0-1.021-.249-1.022-1.077q0-5.159,0-10.318" transform="translate(0 -236.189)" fill="#406ca5"/>
      <path id="Path_19" data-name="Path 19" d="M25.592,5.771c.293-.19.464-.323.654-.42Q31.332,2.771,36.423.2c.671-.339.756-.285.715.474q-.308,5.761-.626,11.521c-.031.573-.168.642-.657.33-.682-.435-1.362-.876-2.033-1.328-.279-.188-.482-.228-.7.1-3.541,5.372-8.781,8.089-14.87,9.441-1.3.288-2.628.451-3.95.611-.483.058-1.152.1-1.331-.455-.2-.614.434-.908.875-1.149a15.881,15.881,0,0,1,2.041-.921,22.463,22.463,0,0,0,9.5-6.1c1.169-1.356,2.115-2.9,3.166-4.362.238-.33.131-.531-.188-.73-.722-.449-1.428-.922-2.137-1.39-.18-.119-.348-.256-.641-.474" transform="translate(-11.364 0)" fill="#406ca5"/>
    </g>
  </g>
</svg>
